<svg id="Ebene_1" data-name="Ebene 1" xmlns="http://www.w3.org/2000/svg" viewBox="0 0 800 300"><title>S2_Black_RGB</title><path fill="white" d="M113.31,162.54c-12.73,0-19.33-6.83-19.68-20.6,0-.69.23-1.16.93-1.27l9.72-1.62a1,1,0,0,1,1.27,1c.35,8.33,2.78,11.58,8.1,11.58,5,0,7.41-2.66,7.41-11.23s-1.62-11.23-7.76-13.66l-4.75-1.85c-10.88-4.28-14.12-10-14.12-22.22,0-13.54,6.14-21,19.1-21s18.64,6.94,19.33,19.21c0,.69-.35,1-1,1.27l-9.26,1.39c-.69.11-1.27-.23-1.27-.93-.23-6.48-2.32-10.07-7.41-10.07-4.86,0-7.18,3-7.18,9.49,0,7.29,1.39,9.49,7.64,11.92l4.75,1.85c10.3,4.05,14.35,9.61,14.35,23C133.45,154.43,128.25,162.54,113.31,162.54Z"/><path fill="white" d="M137.16,83.94a1.09,1.09,0,0,1,1.16-1.16h10.07a1.09,1.09,0,0,1,1.16,1.16v76.4a1.09,1.09,0,0,1-1.16,1.16H138.32a1.09,1.09,0,0,1-1.16-1.16Z"/><path fill="white" d="M156,83.94a1.09,1.09,0,0,1,1.16-1.16h12.27a1.44,1.44,0,0,1,1.62,1.16l14.58,54.4h.58V83.94a1.09,1.09,0,0,1,1.16-1.16H196a1.09,1.09,0,0,1,1.16,1.16v76.4A1.09,1.09,0,0,1,196,161.5H184.5a1.44,1.44,0,0,1-1.62-1.16l-15.28-54.4h-.69v54.4a1.09,1.09,0,0,1-1.16,1.16h-8.57a1.09,1.09,0,0,1-1.16-1.16Z"/><path fill="white" d="M203.6,83.94a1.09,1.09,0,0,1,1.16-1.16H217a1.44,1.44,0,0,1,1.62,1.16l14.58,54.4h.58V83.94A1.09,1.09,0,0,1,235,82.78h8.57a1.09,1.09,0,0,1,1.16,1.16v76.4a1.09,1.09,0,0,1-1.16,1.16H232.07a1.44,1.44,0,0,1-1.62-1.16l-15.28-54.4h-.69v54.4a1.09,1.09,0,0,1-1.16,1.16h-8.57a1.09,1.09,0,0,1-1.16-1.16V83.94Z"/><path fill="white" d="M251.17,83.94a1.09,1.09,0,0,1,1.16-1.16h32.29a1.09,1.09,0,0,1,1.16,1.16v8.91A1.09,1.09,0,0,1,284.62,94H264.25a.61.61,0,0,0-.69.69v20.72a.61.61,0,0,0,.69.69h17.59a1.09,1.09,0,0,1,1.16,1.16v8.91a1.09,1.09,0,0,1-1.16,1.16H264.25a.61.61,0,0,0-.69.69v21.53a.61.61,0,0,0,.69.69h20.37a1.09,1.09,0,0,1,1.16,1.16v8.91a1.09,1.09,0,0,1-1.16,1.16H252.33a1.09,1.09,0,0,1-1.16-1.16V83.94Z"/><path fill="white" d="M321.66,161.49a1.17,1.17,0,0,1-1.27-.81l-9.61-31.37h-5.9a.61.61,0,0,0-.69.69v30.33a1.09,1.09,0,0,1-1.16,1.16H293a1.09,1.09,0,0,1-1.16-1.16V83.94A1.09,1.09,0,0,1,293,82.78h15.86c14,0,22.45,6.13,22.45,23.38,0,10.3-3.47,16.78-9.38,20.14l11.11,34c.23.58,0,1.16-.58,1.16H321.66Zm-2.78-55.33c0-9.26-3-12.15-10-12.15h-4.05a.61.61,0,0,0-.69.69v22.92a.61.61,0,0,0,.69.69h4.05C315.87,118.32,318.88,115.54,318.88,106.16Z"/><path fill="white" d="M355.92,162.54c-12.73,0-19.33-6.83-19.67-20.6,0-.69.23-1.16.93-1.27l9.72-1.62a1,1,0,0,1,1.27,1c.35,8.33,2.78,11.58,8.1,11.58,5,0,7.41-2.66,7.41-11.23s-1.62-11.23-7.76-13.66l-4.74-1.85c-10.88-4.28-14.12-10-14.12-22.22,0-13.54,6.13-21,19.1-21s18.63,6.94,19.33,19.21c0,.69-.35,1-1,1.27l-9.26,1.39c-.69.11-1.27-.23-1.27-.93-.23-6.48-2.32-10.07-7.41-10.07-4.86,0-7.18,3-7.18,9.49,0,7.29,1.39,9.49,7.64,11.92l4.75,1.85c10.3,4.05,14.35,9.61,14.35,23C376.06,154.43,370.85,162.54,355.92,162.54Z"/><path fill="white" d="M380.69,122.14c0-21.88.46-25.12,1.5-28.36,2.43-7.52,8.22-12,17.82-12,11.23,0,18.29,5.79,19,18.87.12.69-.12,1.27-.81,1.39l-9.38,1.62a1,1,0,0,1-1.27-1c-.35-6.72-2.66-9.61-7.18-9.61-3.47,0-5.32,1.5-6.25,4.4-.58,1.85-.81,3.47-.81,24.77s.23,22.92.81,24.77c.93,2.89,2.78,4.4,6.25,4.4,4.51,0,6.83-2.89,7.18-9.61a1,1,0,0,1,1.27-1l9.38,1.62c.69.12.93.69.81,1.39-.69,13.08-7.75,18.87-19,18.87-9.61,0-15.39-4.51-17.82-12C381.15,147.26,380.69,144,380.69,122.14Z"/><path fill="white" d="M425.72,83.94a1.09,1.09,0,0,1,1.16-1.16h10.07a1.09,1.09,0,0,1,1.16,1.16v31a.61.61,0,0,0,.69.69h13.31a.61.61,0,0,0,.69-.69v-31A1.09,1.09,0,0,1,454,82.78H464a1.09,1.09,0,0,1,1.16,1.16v76.4A1.09,1.09,0,0,1,464,161.5H454a1.09,1.09,0,0,1-1.16-1.16V127.58a.61.61,0,0,0-.69-.69H438.79a.61.61,0,0,0-.69.69v32.76a1.09,1.09,0,0,1-1.16,1.16H426.87a1.09,1.09,0,0,1-1.16-1.16Z"/><path fill="white" d="M501.53,161.49a1.17,1.17,0,0,1-1.27-.81l-9.6-31.37h-5.9a.61.61,0,0,0-.7.69v30.33a1.09,1.09,0,0,1-1.16,1.16H472.83a1.09,1.09,0,0,1-1.16-1.16V83.94a1.09,1.09,0,0,1,1.16-1.16h15.86c14,0,22.45,6.13,22.45,23.38,0,10.3-3.47,16.78-9.38,20.14l11.11,34c.23.58,0,1.16-.58,1.16H501.53Zm-2.78-55.33c0-9.26-3-12.15-10-12.15h-4a.61.61,0,0,0-.7.69v22.92a.61.61,0,0,0,.7.69h4C495.74,118.32,498.75,115.54,498.75,106.16Z"/><path fill="white" d="M533.24,83.94c.23-.69.58-1.16,1.27-1.16h9.72a1.26,1.26,0,0,1,1.27,1.16l16.67,76.4a.89.89,0,0,1-.93,1.16h-9.84a1.19,1.19,0,0,1-1.27-1.16L547,144.48H531.39l-3.12,15.86A1.19,1.19,0,0,1,527,161.5h-9.84a.89.89,0,0,1-.93-1.16ZM545,134.06l-5.56-29.29h-.35l-5.79,29.29Z"/><path fill="white" d="M566.23,83.94a1.09,1.09,0,0,1,1.16-1.16h18.17c10.3,0,16.32,4.17,19.1,12.62,1.39,4.28,2,9.61,2,26.74s-.58,22.46-2,26.74c-2.78,8.45-8.8,12.62-19.1,12.62H567.39a1.09,1.09,0,0,1-1.16-1.16Zm13.08,66.33h5c4.4,0,6.95-1.74,8.33-5.67.93-2.89,1.39-6.71,1.39-22.46s-.46-19.56-1.39-22.46c-1.39-3.94-3.93-5.67-8.33-5.67h-5a.61.61,0,0,0-.69.69v54.87A.61.61,0,0,0,579.31,150.27Z"/><path fill="white" d="M611.72,83.94a1.09,1.09,0,0,1,1.16-1.16h32.29a1.09,1.09,0,0,1,1.16,1.16v8.91A1.09,1.09,0,0,1,645.17,94H624.8a.61.61,0,0,0-.7.69v20.72a.61.61,0,0,0,.7.69h17.59a1.09,1.09,0,0,1,1.16,1.16v8.91a1.09,1.09,0,0,1-1.16,1.16H624.8a.61.61,0,0,0-.7.69v21.53a.61.61,0,0,0,.7.69h20.37a1.09,1.09,0,0,1,1.16,1.16v8.91a1.09,1.09,0,0,1-1.16,1.16H612.88a1.09,1.09,0,0,1-1.16-1.16Z"/><path fill="white" d="M682.21,161.49a1.17,1.17,0,0,1-1.27-.81l-9.61-31.37h-5.9a.61.61,0,0,0-.69.69v30.33a1.09,1.09,0,0,1-1.16,1.16H653.5a1.09,1.09,0,0,1-1.16-1.16V83.94a1.09,1.09,0,0,1,1.16-1.16h15.86c14,0,22.45,6.13,22.45,23.38,0,10.3-3.47,16.78-9.38,20.14l11.11,34c.23.58,0,1.16-.58,1.16H682.21Zm-2.78-55.33c0-9.26-3-12.15-10-12.15h-4.05a.61.61,0,0,0-.69.69v22.92a.61.61,0,0,0,.69.69h4.05C676.42,118.32,679.43,115.54,679.43,106.16Z"/><path fill="white" d="M93.59,184.9h9.31c6.28,0,11.46,2.75,11.46,9.58v.18c0,7-5.23,9.67-11.46,9.67H97.58v13.34h-4Zm9.58,16.28c4.68,0,7.2-2.29,7.2-6.51v-.18c0-4.63-2.75-6.37-7.2-6.37H97.58v13.07Z"/><path fill="white" d="M117.43,211c0-5.55,5.87-7.43,12-7.43h3.44v-1.74c0-3.81-1.47-5.41-5.14-5.41-3.3,0-5.14,1.38-5.5,4.31h-3.81c.5-5.46,4.86-7.47,9.49-7.47s8.76,1.88,8.76,8.57v15.82h-3.81v-3a8.64,8.64,0,0,1-7.47,3.44C121,218.1,117.43,215.94,117.43,211Zm15.45-1.74v-3h-3.3c-4.81,0-8.35,1.19-8.35,4.72,0,2.48,1.19,4,4.54,4C129.81,215.07,132.88,213,132.88,209.29Z"/><path fill="white" d="M143.84,193.7h3.81V198c1.51-2.71,3.58-4.59,7.89-4.72v3.58c-4.81.23-7.89,1.74-7.89,7.66v13.16h-3.81Z"/><path fill="white" d="M161.81,211.68V196.91h-3.44V193.7h3.44v-5.46h3.81v5.46h5.59v3.21h-5.59v14.4c0,2.34,1.05,3.48,3,3.48a7.84,7.84,0,0,0,2.93-.5v3.21a9.07,9.07,0,0,1-3.26.5C163.92,218,161.81,215.44,161.81,211.68Z"/><path fill="white" d="M187,205.9v-.37c0-7.2,5-12.24,11.78-12.24s11.78,5,11.78,12.2v.37c0,7.24-5,12.24-11.83,12.24S187,212.92,187,205.9Zm19.62,0v-.32c0-5.55-3.07-9.12-7.84-9.12s-7.84,3.58-7.84,9.08v.37c0,5.46,3,9,7.84,9S206.6,211.31,206.6,205.9Z"/><path fill="white" d="M217,196.91h-3.44V193.7H217v-3.9c0-4.86,2.38-7.7,7.15-7.7a7.71,7.71,0,0,1,2.84.46v3.21a7.48,7.48,0,0,0-2.71-.5c-2.48,0-3.48,1.7-3.48,4.13v4.31h5.87v3.21h-5.87v20.77H217Z"/><path fill="white" d="M252.58,184.9h5.23l11.1,32.78H265l-3.21-9.45H248.23l-3.16,9.45H241.3Zm-3.26,20.18H260.7L255,188.2Z"/><path fill="white" d="M271.61,205.95v-.37c0-7.34,5.23-12.29,11.65-12.29,5,0,9.68,2.29,10.41,8.39h-3.76c-.6-3.81-3.35-5.23-6.65-5.23-4.36,0-7.7,3.48-7.7,9.12v.37c0,5.87,3.21,9,7.84,9,3.39,0,6.47-2,6.88-5.87h3.53c-.5,5.18-4.68,9-10.45,9C276.65,218.1,271.61,213.37,271.61,205.95Z"/><path fill="white" d="M297.42,205.95v-.37c0-7.34,5.23-12.29,11.65-12.29,5,0,9.68,2.29,10.41,8.39h-3.76c-.6-3.81-3.35-5.23-6.65-5.23-4.36,0-7.7,3.48-7.7,9.12v.37c0,5.87,3.21,9,7.84,9,3.39,0,6.47-2,6.88-5.87h3.53c-.5,5.18-4.68,9-10.45,9C302.47,218.1,297.42,213.37,297.42,205.95Z"/><path fill="white" d="M323.23,205.95v-.37c0-7.24,4.63-12.29,11.23-12.29,5.55,0,10.78,3.35,10.78,11.92v1.24H327.18c.18,5.46,2.8,8.48,7.7,8.48,3.71,0,5.87-1.38,6.37-4.17h3.81c-.83,4.81-4.81,7.34-10.23,7.34C328,218.1,323.23,213.33,323.23,205.95Zm18.11-2.57c-.37-5-2.93-6.92-6.88-6.92s-6.51,2.66-7.15,6.92Z"/><path fill="white" d="M350.74,193.7h3.81v3.81c1.1-2.25,3.76-4.22,7.7-4.22,5,0,8.44,2.71,8.44,9.67v14.72h-3.81v-15c0-4.22-1.79-6.1-5.64-6.1-3.53,0-6.69,2.25-6.69,6.56v14.54h-3.81Z"/><path fill="white" d="M378.66,211.68V196.91h-3.44V193.7h3.44v-5.46h3.81v5.46h5.59v3.21h-5.59v14.4c0,2.34,1.06,3.48,3,3.48a7.84,7.84,0,0,0,2.93-.5v3.21a9.07,9.07,0,0,1-3.25.5C380.77,218,378.66,215.44,378.66,211.68Z"/><path fill="white" d="M393.56,208.88V193.7h3.81v15c0,4.22,1.79,6.1,5.55,6.1a6.31,6.31,0,0,0,6.6-6.56V193.7h3.81v24h-3.81v-3.81c-1.1,2.25-3.76,4.22-7.61,4.22C397.14,218.1,393.56,215.48,393.56,208.88Z"/><path fill="white" d="M420.7,193.7h3.81V198c1.51-2.71,3.58-4.59,7.89-4.72v3.58c-4.81.23-7.89,1.74-7.89,7.66v13.16H420.7Z"/><path fill="white" d="M435.15,205.95v-.37c0-7.24,4.63-12.29,11.23-12.29,5.55,0,10.77,3.35,10.77,11.92v1.24H439.09c.18,5.46,2.8,8.48,7.7,8.48,3.71,0,5.87-1.38,6.37-4.17H457c-.83,4.81-4.81,7.34-10.22,7.34C440,218.1,435.15,213.33,435.15,205.95Zm18.11-2.57c-.37-5-2.93-6.92-6.88-6.92s-6.51,2.66-7.15,6.92Z"/><path fill="white" d="M475,184.9h4v32.78h-4Z"/><path fill="white" d="M486.86,193.7h3.81v3.81c1.1-2.25,3.76-4.22,7.7-4.22,5,0,8.44,2.71,8.44,9.67v14.72H503v-15c0-4.22-1.79-6.1-5.64-6.1-3.53,0-6.69,2.25-6.69,6.56v14.54h-3.81Z"/><path fill="white" d="M514.78,211.68V196.91h-3.44V193.7h3.44v-5.46h3.81v5.46h5.59v3.21h-5.59v14.4c0,2.34,1.06,3.48,3,3.48a7.84,7.84,0,0,0,2.93-.5v3.21a9.07,9.07,0,0,1-3.25.5C516.89,218,514.78,215.44,514.78,211.68Z"/><path fill="white" d="M528.12,205.95v-.37c0-7.24,4.63-12.29,11.23-12.29,5.55,0,10.77,3.35,10.77,11.92v1.24H532.07c.18,5.46,2.8,8.48,7.7,8.48,3.71,0,5.87-1.38,6.37-4.17H550c-.83,4.81-4.82,7.34-10.22,7.34C532.94,218.1,528.12,213.33,528.12,205.95Zm18.11-2.57c-.37-5-2.93-6.92-6.88-6.92s-6.51,2.66-7.15,6.92Z"/><path fill="white" d="M555.63,193.7h3.81V198c1.51-2.71,3.58-4.59,7.89-4.72v3.58c-4.81.23-7.89,1.74-7.89,7.66v13.16h-3.81Z"/><path fill="white" d="M570.35,211c0-5.55,5.87-7.43,12-7.43h3.44v-1.74c0-3.81-1.47-5.41-5.14-5.41-3.3,0-5.14,1.38-5.5,4.31h-3.81c.5-5.46,4.86-7.47,9.49-7.47s8.76,1.88,8.76,8.57v15.82H585.8v-3a8.64,8.64,0,0,1-7.47,3.44C573.88,218.1,570.35,215.94,570.35,211Zm15.45-1.74v-3h-3.3c-4.81,0-8.34,1.19-8.34,4.72,0,2.48,1.19,4,4.54,4C582.73,215.07,585.8,213,585.8,209.29Z"/><path fill="white" d="M595,205.95v-.37c0-7.34,5.23-12.29,11.65-12.29,5,0,9.67,2.29,10.41,8.39h-3.76c-.6-3.81-3.35-5.23-6.65-5.23-4.36,0-7.7,3.48-7.7,9.12v.37c0,5.87,3.21,9,7.84,9,3.39,0,6.46-2,6.88-5.87h3.53c-.5,5.18-4.68,9-10.45,9C600,218.1,595,213.37,595,205.95Z"/><path fill="white" d="M623.39,211.68V196.91H620V193.7h3.44v-5.46h3.81v5.46h5.59v3.21H627.2v14.4c0,2.34,1.06,3.48,3,3.48a7.84,7.84,0,0,0,2.93-.5v3.21a9.07,9.07,0,0,1-3.25.5C625.5,218,623.39,215.44,623.39,211.68Z"/><path fill="white" d="M637.93,186.18a2.52,2.52,0,1,1,2.52,2.52A2.54,2.54,0,0,1,637.93,186.18Zm.69,7.52h3.81v24h-3.81Z"/><path fill="white" d="M647.19,193.7h4.13l7.11,20.13,7-20.13h3.94l-8.62,24H655.9Z"/><path fill="white" d="M671.58,205.95v-.37c0-7.24,4.63-12.29,11.23-12.29,5.55,0,10.77,3.35,10.77,11.92v1.24H675.52c.18,5.46,2.8,8.48,7.7,8.48,3.71,0,5.87-1.38,6.37-4.17h3.81c-.83,4.81-4.81,7.34-10.22,7.34C676.39,218.1,671.58,213.33,671.58,205.95Zm18.11-2.57c-.37-5-2.93-6.92-6.88-6.92s-6.51,2.66-7.15,6.92Z"/></svg>